<?xml version="1.0" encoding="utf-8"?>
<!-- Generator: Adobe Illustrator 28.2.0, SVG Export Plug-In . SVG Version: 6.00 Build 0)  -->
<svg version="1.1" id="Layer_1" xmlns="http://www.w3.org/2000/svg" xmlns:xlink="http://www.w3.org/1999/xlink" x="0px" y="0px"
	 viewBox="0 0 191 34" style="enable-background:new 0 0 191 34;" xml:space="preserve">
<style type="text/css">
	.st0{fill:#FFFFFF;}
	.st1{fill:#EC1C24;}
	.st2{fill:#006838;}
	.st3{fill:#A6A8AB;}
</style>
<rect x="95.99" y="0.29" class="st0" width="4.93" height="19.18"/>
<path class="st1" d="M91.32,5.33V0.29h3.73c0.52,0,0.94,0.42,0.94,0.94v17.13c0,0.61-0.5,1.11-1.11,1.11h-9.16
	c-4.4,0-7.91-4.74-6.58-9.24c0.88-2.96,3.74-4.89,6.83-4.89L91.32,5.33z"/>
<path class="st1" d="M111.14,5.33c4.46,0,7.96,4.26,6.63,8.84c-0.92,3.19-3.99,5.3-7.32,5.3l-8.43,0c-0.61,0-1.11-0.5-1.11-1.11
	V1.23c0-0.52,0.42-0.94,0.94-0.94h3.73v5.05H111.14z"/>
<g>
	<path class="st2" d="M11.51,1.83c-3.12,0-5.74,0.98-7.59,2.82C2.26,6.3,1.35,8.52,1.35,10.9c0,4.37,3.18,9.07,10.15,9.07
		c3.1,0,5.71-0.98,7.55-2.82c1.64-1.65,2.54-3.87,2.54-6.24C21.6,6.53,18.44,1.83,11.51,1.83z M17.97,10.92
		c0,2.6-2.02,5.39-6.47,5.39c-4.46,0-6.48-2.8-6.48-5.39c0-2.6,2.03-5.39,6.48-5.39C15.95,5.53,17.97,8.33,17.97,10.92z"/>
	<path class="st2" d="M36.35,11.59c0,2.74-2.21,4.98-4.93,4.98c-2.71,0-5-2.28-5-4.98V2.11h-3.68v9.48c0,4.79,3.89,8.68,8.68,8.68
		s8.68-3.89,8.68-8.68V2.11h-3.75V11.59z"/>
	<path class="st2" d="M53.97,9.48c-1.93-0.22-3.85-0.49-5.78-0.76l-2.01-0.28c-1.33-0.18-1.49-0.93-1.49-1.47
		c0-0.83,0.39-1.22,1.24-1.22h11.4v-3.7h-11.4C43.08,2.06,41,4.13,41,6.97c0,2.73,1.85,4.74,4.72,5.11
		c2.55,0.35,5.15,0.71,7.79,1.03c1.5,0.24,1.5,1.15,1.5,1.45c0,0.71-0.46,1.75-1.29,1.75H42.36v3.7h11.35
		c3.05,0,4.94-2.83,4.94-5.45C58.65,11.9,56.78,9.85,53.97,9.48z"/>
	<path class="st2" d="M70.42,2.06H61.9v3.7h8.53c1.48,0,2.76,1.11,3.03,2.53c-0.71-0.3-1.47-0.45-2.28-0.45h-5.85
		c-3.3,0-5.98,2.69-5.98,6c0,3.34,2.68,6.05,5.98,6.05h5.85c0.82,0,1.6-0.16,2.33-0.46v0.44h3.67V8.84
		C77.18,5.1,74.15,2.06,70.42,2.06z M73.33,14.77c-0.29,0.7-1,1.45-2.14,1.45h-5.85c-1.28,0-2.33-1.07-2.33-2.38
		c0-1.28,1.04-2.33,2.33-2.33h5.85c0.62,0,1.2,0.24,1.64,0.69C73.64,13,73.62,14.05,73.33,14.77z"/>
	<path class="st2" d="M130.56,2.06h-8.53v3.7h8.53c1.48,0,2.76,1.11,3.03,2.53c-0.71-0.3-1.47-0.45-2.27-0.45h-5.86
		c-3.3,0-5.98,2.69-5.98,6c0,3.34,2.68,6.05,5.98,6.05h5.86c0.82,0,1.6-0.16,2.33-0.46v0.44h3.67V8.84
		C137.32,5.1,134.28,2.06,130.56,2.06z M133.46,14.77c-0.29,0.7-1,1.45-2.14,1.45h-5.86c-1.28,0-2.33-1.07-2.33-2.38
		c0-1.28,1.04-2.33,2.33-2.33h5.86c0.61,0,1.2,0.24,1.64,0.69C133.77,13,133.75,14.05,133.46,14.77z"/>
	<polygon class="st2" points="138.42,5.73 150.34,5.73 138.42,16.9 138.42,19.97 156.17,19.97 156.17,16.21 144.58,16.21 
		156.17,5.14 156.17,2.08 138.42,2.08 	"/>
	<path class="st2" d="M168.3,2.06h-8.53v3.7h8.53c1.48,0,2.76,1.11,3.03,2.53c-0.71-0.3-1.47-0.45-2.27-0.45h-5.86
		c-3.3,0-5.98,2.69-5.98,6c0,3.34,2.68,6.05,5.98,6.05h5.86c0.82,0,1.6-0.16,2.33-0.46v0.44h3.67V8.84
		C175.05,5.1,172.02,2.06,168.3,2.06z M171.2,14.77c-0.29,0.7-1,1.45-2.14,1.45h-5.86c-1.28,0-2.33-1.07-2.33-2.38
		c0-1.28,1.04-2.33,2.33-2.33h5.86c0.61,0,1.2,0.24,1.64,0.69C171.51,13,171.49,14.05,171.2,14.77z"/>
	<path class="st2" d="M190.21,3.62c-1.52-1.16-3.4-1.79-5.3-1.79c-1.78,0-3.5,0.57-4.95,1.61V2.11h-3.68v17.86h3.68v-9.46
		c0-2.73,2.22-4.95,4.95-4.95c1.17,0,2.27,0.4,3.19,1.15l0.43,0.35l2.04-3.15L190.21,3.62z"/>
</g>
<path class="st0" d="M88.87,12.28V9.1c0-0.48,0.39-0.88,0.88-0.88h17.42c0.48,0,0.88,0.39,0.88,0.88v3.17
	c0,0.48-0.39,0.88-0.88,0.88H89.75C89.26,13.15,88.87,12.76,88.87,12.28z"/>
<g>
	<g>
		<path class="st3" d="M137.21,29.6c0.45,0.5,0.67,1.08,0.67,1.75c0,0.79-0.4,1.41-1.19,1.86c-0.49,0.29-1.04,0.43-1.65,0.43
			c-1.86,0-3.34-1.29-4.44-3.88l0.78-1.03c0.43,1.03,0.85,1.81,1.26,2.34c0.65,0.82,1.39,1.23,2.21,1.23c1.13,0,1.7-0.37,1.7-1.11
			c0-0.5-0.26-0.9-0.77-1.19c-0.2-0.02-0.36,0-0.48,0.07c-0.07,0.04-0.21,0.14-0.4,0.32l-0.82-1.37c0.37-0.3,0.74-0.46,1.08-0.46
			c0.14,0,0.29,0.03,0.43,0.08c0.38-0.21,0.56-0.57,0.56-1.08c0-0.33-0.13-0.61-0.39-0.85c-0.26-0.24-0.55-0.35-0.88-0.35
			c-0.23,0-0.48,0.05-0.74,0.16c-0.33,0.13-0.5,0.3-0.5,0.51c0,0.1,0.04,0.15,0.13,0.15c0.07,0,0.2-0.02,0.39-0.05l0.48-0.33
			l-0.19,1.32c-0.2,0.09-0.41,0.13-0.64,0.13c-0.87,0-1.31-0.33-1.31-0.99c0-0.59,0.25-1.08,0.74-1.49
			c0.46-0.38,0.98-0.58,1.58-0.58c0.67,0,1.26,0.21,1.77,0.63c0.55,0.45,0.83,1,0.83,1.65c0,0.22-0.03,0.42-0.08,0.6
			c0.4-0.29,0.6-0.7,0.6-1.21c0-0.6-0.53-1.09-1.6-1.48c-0.29-0.1-0.8-0.28-1.54-0.54c-1.43-0.53-2.15-1.27-2.15-2.22
			c0-0.38,0.28-0.82,0.83-1.33l1.22,0.5c-0.56,0.41-0.84,0.72-0.84,0.92c0,0.29,0.25,0.54,0.76,0.74c0.31,0.11,0.92,0.32,1.83,0.64
			c1.83,0.65,2.74,1.62,2.74,2.9c0,0.6-0.19,1.15-0.56,1.65C138.26,29.16,137.79,29.48,137.21,29.6z"/>
		<path class="st3" d="M146.86,26.39v7.16h-1.2c-1.2-0.97-3.04-1.74-5.51-2.29l-0.37-1.33l3.01-1.3c-0.27-0.39-0.71-0.71-1.34-0.94
			c-0.53-0.2-1.08-0.3-1.65-0.32v-0.99h-0.78v-1.2h8.67v1.2H146.86z M145.54,26.39h-3.59c1.19,0.65,1.93,1.24,2.23,1.75
			c0.55,0.02,1,0.18,1.36,0.5V26.39z M145.54,30.29c-0.3-0.52-0.77-0.79-1.38-0.8l-1.83,0.88c0.75,0.29,1.3,0.51,1.65,0.67
			c0.6,0.28,1.12,0.57,1.56,0.87V30.29z"/>
		<path class="st3" d="M154.37,26.39v7.17h-1.16c-0.43-0.7-1.2-1.36-2.31-2c-1.04-0.6-2.01-0.97-2.89-1.1l-0.39-1.37
			c0.4-0.23,1.03-0.6,1.89-1.09c-0.86-0.25-1.28-0.7-1.28-1.34c0-0.98,0.69-1.48,2.06-1.48c0.26,0,0.71,0.15,1.35,0.46l-0.74,1.08
			c-0.41-0.2-0.69-0.29-0.83-0.29c-0.29,0-0.44,0.08-0.44,0.25c0,0.36,0.46,0.54,1.39,0.54c0.31,0,0.66-0.08,1.04-0.23
			c0.25-0.1,0.58-0.24,1-0.41v-1.39h2.19v1.2H154.37z M153.04,27.99c-1.15,0.43-2.26,0.93-3.33,1.51c1.32,0.56,2.43,1.24,3.33,2.02
			V27.99z"/>
		<path class="st3" d="M162.36,26.39v7.17h-1.16c-0.46-0.74-1.3-1.44-2.51-2.09c-1.21-0.65-2.26-1-3.17-1.03l-0.38-1.38
			c0.56-0.42,1.53-0.92,2.89-1.49c0.51-0.21,1.51-0.6,3-1.17h-6.5v-1.2h8.8v1.2H162.36z M161.03,27.9c-0.86,0.3-2.06,0.82-3.61,1.55
			c1.37,0.54,2.58,1.24,3.61,2.09V27.9z"/>
		<path class="st3" d="M165.09,26.39v7.16h-1.32v-7.16h-1.18v-1.2h3.57v1.2H165.09z"/>
		<path class="st3" d="M168.19,31.2c0.69,0.35,1.14,0.52,1.33,0.52c0.51,0,0.93-0.12,1.25-0.38c0.36-0.28,0.55-0.66,0.55-1.15
			c0-0.16-0.03-0.31-0.09-0.44c-0.44,0.4-0.9,0.6-1.4,0.6c-0.55,0-0.98-0.18-1.27-0.55c-0.3-0.37-0.45-0.83-0.45-1.39
			c0-0.63,0.26-1.31,0.78-2.03h-3.43v-1.2h10.34v1.2h-3.81c0.3,0.67,0.91,1,1.82,1c0.16,0,0.33-0.01,0.5-0.03l0.84,1.04
			c-0.57,1.17-0.86,2.02-0.86,2.54c0,1.16,0.18,1.99,0.54,2.49l-0.99,0.54c-0.53-0.78-0.79-1.61-0.79-2.49
			c0-0.69,0.18-1.63,0.54-2.82c-0.66-0.11-1.26-0.34-1.79-0.7c-0.6-0.4-1-0.89-1.19-1.47c-0.78,0.62-1.17,1.27-1.17,1.97
			c0,0.4,0.15,0.6,0.46,0.6c0.52,0,0.91-0.24,1.17-0.72h1.18c0.27,0.4,0.4,0.98,0.4,1.74c0,1.95-1.02,2.93-3.06,2.93
			c-0.38,0-0.78-0.1-1.18-0.29c-0.13-0.06-0.49-0.27-1.06-0.62c-0.32-0.54-0.76-1.37-1.31-2.49l0.85-0.82
			C167.17,29.61,167.6,30.41,168.19,31.2z"/>
		<path class="st3" d="M177.59,26.39v7.16h-1.32v-7.16h-1.18v-1.2h3.57v1.2H177.59z"/>
		<path class="st3" d="M185.67,26.39v7.17h-1.18c-0.45-0.73-1.26-1.42-2.45-2.06c-1.19-0.64-2.22-0.97-3.1-1l-0.36-1.4
			c1.45-0.94,3.36-1.84,5.73-2.71h-6.34v-1.2h8.54v1.2H185.67z M182.12,33.89c-0.38-0.38-0.92-0.75-1.62-1.1l0.58-1.1
			c0.7,0.29,1.32,0.74,1.87,1.34L182.12,33.89z M184.34,27.9c-1.24,0.45-2.41,0.98-3.51,1.61c1.27,0.46,2.44,1.14,3.51,2.03V27.9z"
			/>
	</g>
</g>
</svg>
