<?xml version="1.0" encoding="utf-8"?>
<!-- Generator: Adobe Illustrator 28.2.0, SVG Export Plug-In . SVG Version: 6.00 Build 0)  -->
<svg version="1.1" id="Layer_1" xmlns="http://www.w3.org/2000/svg" xmlns:xlink="http://www.w3.org/1999/xlink" x="0px" y="0px"
	 viewBox="0 0 205 50" style="enable-background:new 0 0 205 50;" xml:space="preserve">
<style type="text/css">
	.st0{fill:#FFFFFF;}
	.st1{fill:#EA1F27;}
	.st2{fill:#016938;}
	.st3{fill:#A6A7AA;stroke:#A6A7AA;stroke-width:0.15;stroke-miterlimit:10;}
</style>
<rect x="99.85" y="2.21" class="st0" width="10.68" height="26.9"/>
<path class="st1" d="M97.42,14.01V2.21h3.99c0.56,0,1.01,0.45,1.01,1.01v24.7c0,0.65-0.53,1.18-1.18,1.18h-9.79
	c-4.7,0-8.45-5.07-7.03-9.87c0.94-3.16,3.99-5.22,7.29-5.22L97.42,14.01z"/>
<path class="st1" d="M119.66,14.01c4.77,0,8.5,4.55,7.08,9.44c-0.99,3.41-4.26,5.66-7.81,5.66l-9,0c-0.65,0-1.18-0.53-1.18-1.18
	V3.22c0-0.56,0.45-1.01,1.01-1.01h3.99v11.8H119.66z"/>
<g>
	<path class="st2" d="M12.17,10.27c-3.33,0-6.14,1.04-8.11,3.02c-1.76,1.76-2.73,4.13-2.73,6.67c0,4.66,3.39,9.69,10.85,9.69
		c3.31,0,6.1-1.04,8.07-3.02c1.75-1.76,2.72-4.13,2.72-6.67C22.95,15.29,19.58,10.27,12.17,10.27z M19.07,19.98
		c0,2.77-2.16,5.76-6.91,5.76c-4.76,0-6.93-2.99-6.93-5.76c0-2.77,2.17-5.76,6.93-5.76C16.91,14.22,19.07,17.21,19.07,19.98z"/>
	<path class="st2" d="M38.7,20.7c0,2.93-2.36,5.32-5.26,5.32c-2.9,0-5.34-2.43-5.34-5.32V10.57h-3.93V20.7
		c0,5.11,4.16,9.27,9.27,9.27s9.27-4.16,9.27-9.27V10.57H38.7V20.7z"/>
	<path class="st2" d="M57.53,18.44c-2.06-0.24-4.12-0.52-6.18-0.81l-2.14-0.29c-1.42-0.2-1.59-0.99-1.59-1.57
		c0-0.89,0.42-1.3,1.33-1.3h12.18v-3.95H48.95c-3.06,0-5.28,2.21-5.28,5.25c0,2.92,1.98,5.06,5.04,5.46c2.73,0.38,5.5,0.76,8.32,1.1
		c1.6,0.26,1.6,1.23,1.6,1.55c0,0.76-0.49,1.87-1.38,1.87H45.12v3.95h12.13c3.26,0,5.28-3.02,5.28-5.82
		C62.53,21.02,60.52,18.84,57.53,18.44z"/>
	<path class="st2" d="M75.1,10.51h-9.11v3.95h9.11c1.59,0,2.95,1.19,3.24,2.7c-0.75-0.32-1.57-0.48-2.43-0.48h-6.25
		c-3.52,0-6.38,2.88-6.38,6.41c0,3.57,2.86,6.47,6.38,6.47h6.25c0.88,0,1.71-0.17,2.49-0.5v0.47h3.93V17.76
		C82.32,13.76,79.08,10.51,75.1,10.51z M78.2,24.09c-0.31,0.75-1.07,1.55-2.29,1.55h-6.25c-1.37,0-2.49-1.14-2.49-2.54
		c0-1.37,1.12-2.48,2.49-2.48h6.25c0.66,0,1.28,0.26,1.76,0.74C78.53,22.21,78.51,23.33,78.2,24.09z"/>
	<path class="st2" d="M139.33,10.51h-9.11v3.95h9.11c1.59,0,2.95,1.19,3.24,2.7c-0.75-0.32-1.57-0.48-2.43-0.48h-6.25
		c-3.52,0-6.38,2.88-6.38,6.41c0,3.57,2.86,6.47,6.38,6.47h6.25c0.88,0,1.71-0.17,2.48-0.5v0.47h3.93V17.76
		C146.55,13.76,143.31,10.51,139.33,10.51z M142.43,24.09c-0.31,0.75-1.07,1.55-2.29,1.55h-6.25c-1.37,0-2.49-1.14-2.49-2.54
		c0-1.37,1.12-2.48,2.49-2.48h6.25c0.66,0,1.28,0.26,1.75,0.74C142.76,22.21,142.74,23.33,142.43,24.09z"/>
	<polygon class="st2" points="147.72,14.44 160.47,14.44 147.72,26.37 147.72,29.64 166.69,29.64 166.69,25.64 154.31,25.64 
		166.69,13.81 166.69,10.54 147.72,10.54 	"/>
	<path class="st2" d="M179.64,10.51h-9.11v3.95h9.11c1.59,0,2.95,1.19,3.24,2.7c-0.75-0.32-1.57-0.48-2.43-0.48h-6.25
		c-3.52,0-6.38,2.88-6.38,6.41c0,3.57,2.86,6.47,6.38,6.47h6.25c0.88,0,1.71-0.17,2.48-0.5v0.47h3.93V17.76
		C186.86,13.76,183.62,10.51,179.64,10.51z M182.74,24.09c-0.31,0.75-1.07,1.55-2.29,1.55h-6.25c-1.37,0-2.49-1.14-2.49-2.54
		c0-1.37,1.12-2.48,2.49-2.48h6.25c0.66,0,1.28,0.26,1.75,0.74C183.07,22.21,183.05,23.33,182.74,24.09z"/>
	<path class="st2" d="M203.05,12.19c-1.62-1.24-3.63-1.92-5.66-1.92c-1.9,0-3.74,0.61-5.29,1.72v-1.43h-3.93v19.08h3.93v-10.1
		c0-2.92,2.37-5.29,5.29-5.29c1.25,0,2.43,0.42,3.41,1.23l0.46,0.38l2.18-3.37L203.05,12.19z"/>
</g>
<path class="st0" d="M94.8,22.56v-4.58c0-0.48,0.39-0.88,0.88-0.88H115c0.48,0,0.88,0.39,0.88,0.88v4.58c0,0.48-0.39,0.88-0.88,0.88
	H95.68C95.19,23.43,94.8,23.04,94.8,22.56z"/>
<g>
	<g>
		<path class="st3" d="M127.33,40.73c0.61,0.69,0.92,1.49,0.92,2.4c0,1.09-0.54,1.94-1.63,2.55c-0.67,0.39-1.42,0.59-2.26,0.59
			c-2.54,0-4.58-1.77-6.09-5.32l1.07-1.41c0.59,1.41,1.16,2.48,1.73,3.21c0.89,1.13,1.91,1.69,3.03,1.69c1.56,0,2.33-0.51,2.33-1.52
			c0-0.68-0.35-1.23-1.05-1.63c-0.27-0.02-0.49,0.01-0.66,0.09c-0.1,0.05-0.28,0.2-0.55,0.44l-1.13-1.87
			c0.51-0.42,1.01-0.62,1.49-0.62c0.2,0,0.39,0.04,0.59,0.11c0.51-0.28,0.77-0.78,0.77-1.49c0-0.45-0.18-0.84-0.53-1.17
			c-0.35-0.32-0.76-0.49-1.21-0.49c-0.32,0-0.66,0.07-1.01,0.22c-0.45,0.18-0.68,0.42-0.68,0.7c0,0.13,0.06,0.2,0.18,0.2
			c0.1,0,0.27-0.02,0.53-0.07l0.66-0.46l-0.26,1.82c-0.27,0.12-0.56,0.18-0.88,0.18c-1.2,0-1.8-0.45-1.8-1.36
			c0-0.81,0.34-1.49,1.01-2.04c0.62-0.53,1.35-0.79,2.16-0.79c0.92,0,1.73,0.29,2.42,0.86c0.76,0.61,1.14,1.36,1.14,2.26
			c0,0.31-0.04,0.58-0.11,0.83c0.55-0.4,0.83-0.96,0.83-1.66c0-0.82-0.73-1.49-2.19-2.03c-0.39-0.13-1.09-0.38-2.11-0.74
			c-1.97-0.72-2.95-1.74-2.95-3.05c0-0.51,0.38-1.12,1.14-1.82l1.67,0.68c-0.77,0.56-1.16,0.98-1.16,1.27c0,0.4,0.35,0.74,1.05,1.01
			c0.43,0.15,1.27,0.44,2.51,0.88c2.51,0.89,3.76,2.22,3.76,3.98c0,0.82-0.26,1.57-0.77,2.26
			C128.76,40.14,128.11,40.58,127.33,40.73z"/>
		<path class="st3" d="M141.63,36.33v9.82h-1.65c-1.65-1.33-4.17-2.38-7.56-3.14l-0.51-1.82l4.13-1.78
			c-0.37-0.54-0.98-0.97-1.83-1.28c-0.72-0.27-1.47-0.42-2.26-0.44v-1.36h-1.06v-1.65h11.89v1.65H141.63z M139.82,36.33h-4.92
			c1.63,0.89,2.65,1.7,3.06,2.4c0.75,0.03,1.37,0.25,1.86,0.68V36.33z M139.82,41.69c-0.42-0.71-1.05-1.08-1.9-1.1l-2.5,1.21
			c1.03,0.39,1.79,0.7,2.27,0.92c0.82,0.38,1.53,0.78,2.14,1.19V41.69z"/>
		<path class="st3" d="M153.01,36.33v9.83h-1.6c-0.59-0.96-1.64-1.87-3.17-2.74c-1.43-0.82-2.75-1.32-3.96-1.51l-0.53-1.88
			c0.55-0.32,1.41-0.82,2.59-1.49c-1.17-0.34-1.76-0.96-1.76-1.84c0-1.35,0.94-2.02,2.82-2.02c0.35,0,0.97,0.21,1.85,0.63
			l-1.01,1.47c-0.56-0.27-0.94-0.4-1.14-0.4c-0.4,0-0.61,0.11-0.61,0.34c0,0.49,0.64,0.74,1.9,0.74c0.43,0,0.91-0.1,1.42-0.31
			c0.35-0.13,0.8-0.32,1.37-0.57v-1.91h3.01v1.65H153.01z M151.19,38.53c-1.58,0.59-3.1,1.28-4.57,2.07
			c1.81,0.77,3.33,1.69,4.57,2.77V38.53z"/>
		<path class="st3" d="M165.04,36.33v9.83h-1.6c-0.64-1.02-1.78-1.98-3.44-2.87c-1.66-0.9-3.1-1.37-4.34-1.42l-0.51-1.9
			c0.77-0.58,2.09-1.26,3.96-2.04c0.7-0.29,2.07-0.83,4.11-1.6h-8.92v-1.65h12.07v1.65H165.04z M163.22,38.41
			c-1.17,0.42-2.83,1.13-4.95,2.13c1.88,0.75,3.53,1.7,4.95,2.86V38.41z"/>
		<path class="st3" d="M169.86,36.33v9.82h-1.82v-9.82h-1.61v-1.65h4.9v1.65H169.86z"/>
		<path class="st3" d="M175.19,42.94c0.95,0.48,1.56,0.72,1.83,0.72c0.69,0,1.27-0.17,1.72-0.51c0.5-0.38,0.75-0.9,0.75-1.58
			c0-0.22-0.04-0.42-0.13-0.6c-0.6,0.55-1.24,0.83-1.92,0.83c-0.76,0-1.34-0.25-1.74-0.75c-0.41-0.5-0.61-1.14-0.61-1.91
			c0-0.87,0.35-1.8,1.06-2.79h-4.7v-1.65h14.18v1.65h-5.23c0.42,0.92,1.25,1.38,2.5,1.38c0.22,0,0.45-0.01,0.68-0.04l1.16,1.43
			c-0.78,1.6-1.17,2.76-1.17,3.49c0,1.59,0.25,2.73,0.73,3.41l-1.36,0.73c-0.72-1.07-1.08-2.2-1.08-3.41c0-0.94,0.24-2.23,0.73-3.87
			c-0.91-0.15-1.72-0.46-2.45-0.95c-0.82-0.55-1.37-1.22-1.64-2.02c-1.07,0.84-1.6,1.74-1.6,2.7c0,0.55,0.21,0.83,0.63,0.83
			c0.71,0,1.25-0.33,1.6-0.99h1.62c0.37,0.55,0.55,1.35,0.55,2.39c0,2.68-1.4,4.02-4.2,4.02c-0.53,0-1.06-0.13-1.61-0.4
			c-0.18-0.09-0.67-0.37-1.45-0.84c-0.44-0.73-1.04-1.87-1.8-3.41l1.17-1.12C173.79,40.75,174.39,41.85,175.19,42.94z"/>
		<path class="st3" d="M189.16,36.33v9.82h-1.82v-9.82h-1.61v-1.65h4.9v1.65H189.16z"/>
		<path class="st3" d="M201.32,36.33v9.83h-1.61c-0.61-1.01-1.73-1.95-3.36-2.83c-1.63-0.88-3.05-1.33-4.26-1.37l-0.49-1.92
			c1.99-1.29,4.61-2.53,7.85-3.72h-8.7v-1.65h11.7v1.65H201.32z M196.46,46.62c-0.51-0.53-1.25-1.03-2.22-1.5l0.79-1.5
			c0.95,0.4,1.81,1.01,2.57,1.83L196.46,46.62z M199.5,38.41c-1.7,0.61-3.3,1.35-4.81,2.2c1.74,0.64,3.34,1.57,4.81,2.79V38.41z"/>
	</g>
</g>
</svg>
